<svg width="600" height="600" viewBox="0 0 600 600" fill="none" xmlns="http://www.w3.org/2000/svg">
<path d="M580 300C580 454.64 454.64 580 300 580C145.37 580 20 454.64 20 300C20 145.36 145.37 20 300 20C454.64 20 580 145.36 580 300ZM555.887 300C555.887 158.67 441.327 44.11 299.997 44.11C158.677 44.11 44.107 158.67 44.107 300C44.107 441.33 158.677 555.89 299.997 555.89C441.317 555.89 555.887 441.33 555.887 300ZM300.367 460C285.637 460 273.699 448.062 273.699 433.332C273.699 418.605 285.637 406.668 300.367 406.668C315.094 406.668 327.031 418.606 327.031 433.332C327.031 448.062 315.093 460 300.367 460ZM380.367 220C380.367 259.641 351.535 292.547 313.699 298.895V365.852H287.031V273.332H300.367C329.82 273.332 353.699 249.453 353.699 220C353.699 190.543 329.82 166.664 300.367 166.664C270.91 166.664 247.031 190.543 247.031 219.996V233.332H220.367V219.996C220.367 175.812 256.183 139.996 300.367 139.996C344.551 139.996 380.367 175.812 380.367 220Z" fill="white"/>
</svg>
