<svg width="600" height="600" viewBox="0 0 600 600" fill="none" xmlns="http://www.w3.org/2000/svg">
<path d="M507.996 32.664H508.043C511.262 32.664 513.875 30.0507 513.875 26.832C513.875 23.6133 511.262 21 508.043 21C507.996 21 507.949 21.0234 507.903 21.0234L139.683 21.0195C112.593 21.0195 92.6436 36.5815 87.6236 61.6215C86.69 66.266 86.9009 71.0004 87.6236 75.6915C87.6236 75.8087 87.5064 75.879 87.5064 75.9962V572.436C87.5064 575.655 90.1197 578.268 93.3384 578.268H508.048C511.267 578.268 513.88 575.655 513.88 572.436V109.056C513.88 105.837 511.267 103.224 508.048 103.224C505.552 103.224 503.173 102.009 500.978 99.607C494.724 92.7945 491.599 78.513 492.951 63.369C495.072 44.377 503.123 32.732 508.002 32.662L507.996 32.664ZM99.0563 63.883C102.978 44.356 118.165 32.664 139.681 32.664H490.751C486.107 39.9218 482.724 50.141 481.372 62.203C481.326 62.7616 481.396 63.2772 481.349 63.8358H169.799C166.58 63.8358 163.967 66.4491 163.967 69.6678C163.967 72.8865 166.58 75.4998 169.799 75.4998H481.159C481.811 86.6518 484.846 96.1478 489.534 103.242L132.724 103.246C122.993 103.246 113.146 98.3004 106.333 89.9917C99.9619 82.1987 97.3018 72.6797 99.0518 63.8827L99.0563 63.883ZM99.1735 99.211C106.685 107.449 116.557 112.699 126.893 114.215V566.605H99.1735V99.211ZM138.561 566.581V114.921H502.211V566.581H138.561Z" fill="white"/>
<path d="M319.748 456.983C307.603 456.983 296.737 454.533 287.149 449.632C277.632 444.661 270.032 437.842 264.35 429.178C258.74 420.513 255.757 410.605 255.402 399.455H274.684C275.324 411.031 279.869 420.548 288.321 428.006C296.772 435.392 307.248 439.085 319.748 439.085C329.478 439.085 338.143 436.777 345.743 432.161C353.342 427.473 359.272 421.081 363.534 412.984C367.866 404.817 370.032 395.619 370.032 385.392C369.961 374.739 367.653 365.364 363.108 357.267C358.562 349.099 352.383 342.707 344.571 338.091C336.829 333.474 328.129 331.166 318.47 331.166C311.154 331.095 303.981 332.303 296.95 334.788C289.919 337.274 284.059 340.47 279.372 344.376L259.45 341.82L272.554 235.818H380.366V253.716H289.279L280.544 326.692H281.609C286.439 322.643 292.298 319.341 299.187 316.784C306.147 314.227 313.498 312.949 321.24 312.949C334.095 312.949 345.636 316.038 355.863 322.217C366.162 328.396 374.294 336.919 380.26 347.786C386.297 358.581 389.315 371.01 389.315 385.072C389.315 398.851 386.297 411.173 380.26 422.04C374.294 432.835 366.055 441.358 355.544 447.608C345.103 453.858 333.172 456.983 319.748 456.983Z" fill="white"/>
</svg>
